<?xml version="1.0" encoding="UTF-8" standalone="no"?>
<!-- Created with Inkscape (http://www.inkscape.org/) -->

<svg
   width="500"
   height="500"
   viewBox="0 0 132.29166 132.29167"
   version="1.1"
   id="svg5"
   inkscape:version="1.2.1 (9c6d41e410, 2022-07-14)"
   sodipodi:docname="pokeball.svg"
   xmlns:inkscape="http://www.inkscape.org/namespaces/inkscape"
   xmlns:sodipodi="http://sodipodi.sourceforge.net/DTD/sodipodi-0.dtd"
   xmlns="http://www.w3.org/2000/svg"
   xmlns:svg="http://www.w3.org/2000/svg">
  <sodipodi:namedview
     id="namedview7"
     pagecolor="#ffffff"
     bordercolor="#000000"
     borderopacity="0.25"
     inkscape:showpageshadow="2"
     inkscape:pageopacity="0.0"
     inkscape:pagecheckerboard="0"
     inkscape:deskcolor="#d1d1d1"
     inkscape:document-units="mm"
     showgrid="false"
     inkscape:zoom="0.53543895"
     inkscape:cx="410.87784"
     inkscape:cy="705.96283"
     inkscape:window-width="1920"
     inkscape:window-height="1027"
     inkscape:window-x="-8"
     inkscape:window-y="-8"
     inkscape:window-maximized="1"
     inkscape:current-layer="layer1" />
  <defs
     id="defs2" />
  <g
     inkscape:label="Camada 1"
     inkscape:groupmode="layer"
     id="layer1">
    <path
       id="path234"
       style="fill:#dbdbdb;opacity:0.35;stroke-width:8.80866"
       d="M 65.775825,0 A 66.145836,66.145836 0 0 0 0,59.531265 h 36.110975 a 30.427084,30.427084 0 0 1 29.66485,-23.8125 30.427084,30.427084 0 0 1 29.66538,23.8125 H 131.55218 A 66.145836,66.145836 0 0 0 65.775825,0 Z m 5.2e-4,43.656265 a 22.489584,22.489584 0 0 0 -22.489581,22.48958 22.489584,22.489584 0 0 0 22.489581,22.48958 22.489584,22.489584 0 0 0 22.48958,-22.48958 22.489584,22.489584 0 0 0 -22.48958,-22.48958 z M 0,72.760425 A 66.145836,66.145836 0 0 0 65.775825,132.29167 66.145836,66.145836 0 0 0 131.55217,72.760425 H 95.441205 a 30.427084,30.427084 0 0 1 -29.66538,23.8125 30.427084,30.427084 0 0 1 -29.66485,-23.8125 z" />
  </g>
</svg>
